<svg id="svg2" xmlns="http://www.w3.org/2000/svg" viewBox="0 0 138.73 55"><defs><style>.cls-1{fill:#f4a248;}.cls-2{fill:#fff;}.cls-3{fill:#646464;}</style></defs><g id="g5213"><g id="path5215"><path class="cls-1" d="M193.12,28.82c1.73,2,1.58,5,0,6.32l-23.5,23.41a4.4,4.4,0,0,1-5.41,0L140.62,35.07a4.41,4.41,0,0,1,.09-6.25L163.85,5.64a4.42,4.42,0,0,1,6,.1Z" transform="translate(-55.63 -4.5)"/></g></g><g id="g5217"><g id="path5219"><path class="cls-2" d="M165.92,24.83a2.11,2.11,0,0,1-2.11,2.11H151.22a2.12,2.12,0,0,1-2.11-2.11V24.5a2.1,2.1,0,0,1,2.11-2.11h12.59a2.1,2.1,0,0,1,2.11,2.11Z" transform="translate(-55.63 -4.5)"/></g></g><g id="g5221"><g id="path5223"><path class="cls-2" d="M161.35,24.48a2.12,2.12,0,0,1,2.11-2.11h.33a2.11,2.11,0,0,1,2.11,2.11v7.76a2.11,2.11,0,0,1-2.11,2.11h-.33a2.12,2.12,0,0,1-2.11-2.11Z" transform="translate(-55.63 -4.5)"/></g></g><g id="g5225"><g id="path5227"><path class="cls-2" d="M165.92,32.25a2.11,2.11,0,0,1-2.11,2.11H151.22a2.11,2.11,0,0,1-2.11-2.11v-.33a2.11,2.11,0,0,1,2.11-2.11h12.59a2.11,2.11,0,0,1,2.11,2.11Z" transform="translate(-55.63 -4.5)"/></g></g><g id="g5229"><g id="path5231"><path class="cls-2" d="M153.7,39.59a2.11,2.11,0,0,1-2.11,2.11h-.35a2.11,2.11,0,0,1-2.11-2.11V31.93a2.11,2.11,0,0,1,2.11-2.11h.35a2.11,2.11,0,0,1,2.11,2.11v7.66Z" transform="translate(-55.63 -4.5)"/></g></g><g id="g5233"><g id="path5235"><path class="cls-2" d="M149.11,39.59a2.1,2.1,0,0,0,2.11,2.11h12.59a2.11,2.11,0,0,0,2.11-2.11v-.35a2.11,2.11,0,0,0-2.11-2.1H151.22a2.1,2.1,0,0,0-2.11,2.1Z" transform="translate(-55.63 -4.5)"/></g></g><g id="g5237"><g id="path5239"><path class="cls-2" d="M172.93,33.44a2.1,2.1,0,0,1-2.11,2.11h-.66a2.11,2.11,0,0,1-2.11-2.11V24.5a2.11,2.11,0,0,1,2.11-2.11h.66a2.1,2.1,0,0,1,2.11,2.11Z" transform="translate(-55.63 -4.5)"/></g></g><g id="g5241"><g id="path5243"><path class="cls-2" d="M185,33.44a2.11,2.11,0,0,1-2.11,2.11H170.17a2.11,2.11,0,0,1-2.11-2.11V32.8a2.12,2.12,0,0,1,2.11-2.11h12.67A2.12,2.12,0,0,1,185,32.8Z" transform="translate(-55.63 -4.5)"/></g></g><g id="g5245"><g id="path5247"><path class="cls-2" d="M185,39.59a2.11,2.11,0,0,1-2.11,2.11h-.72a2.1,2.1,0,0,1-2.1-2.11V24.49a2.1,2.1,0,0,1,2.1-2.11h.72A2.11,2.11,0,0,1,185,24.49Z" transform="translate(-55.63 -4.5)"/></g></g><g id="g5249"><g id="path5251"><path class="cls-2" d="M162.83,29.08a1.07,1.07,0,0,1-1.08,1.08h-1.67A1.08,1.08,0,0,1,159,29.08V27.34a1.08,1.08,0,0,1,1.08-1.09h1.67a1.07,1.07,0,0,1,1.08,1.09Z" transform="translate(-55.63 -4.5)"/></g></g><g id="g5253"><g id="path5255"><path class="cls-1" d="M161.35,28.7c0,1.1,0,1.1-1.37,1.1h-9.72a1.25,1.25,0,0,1-1.37-1.1V28a1.27,1.27,0,0,1,1.37-1.1H160c1.37,0,1.37,0,1.37,1.1Z" transform="translate(-55.63 -4.5)"/></g></g><g id="g5257"><g id="path5259"><path class="cls-2" d="M154.93,36.62a1,1,0,0,1-2.05,0V34.89a1,1,0,0,1,2.05,0Z" transform="translate(-55.63 -4.5)"/></g></g><g id="g5261"><g id="path5263"><path class="cls-1" d="M153.68,35.42c0-1.06,0-1.06,1.37-1.06h9.72a1.24,1.24,0,0,1,1.37,1.06v.64a1.25,1.25,0,0,1-1.37,1.07h-9.72c-1.37,0-1.37,0-1.37-1.07Z" transform="translate(-55.63 -4.5)"/></g></g><path class="cls-3" d="M55.63,37.43a1.32,1.32,0,0,1,.42-1,1.57,1.57,0,0,1,1.14-.4,1.55,1.55,0,0,1,.78.18,1.86,1.86,0,0,1,.55.5,4.12,4.12,0,0,0,2,1.46,8.12,8.12,0,0,0,2.52.37,3.7,3.7,0,0,0,2.57-.86,2.75,2.75,0,0,0,1-2.11,2.39,2.39,0,0,0-.87-1.77,6.33,6.33,0,0,0-3.08-1.26,12.39,12.39,0,0,1-4.86-1.94,4.12,4.12,0,0,1-1.7-3.45,4.69,4.69,0,0,1,.58-2.38,5.18,5.18,0,0,1,1.54-1.69,7.37,7.37,0,0,1,2.19-1,9.3,9.3,0,0,1,2.53-.34,8,8,0,0,1,3,.49,7,7,0,0,1,2,1.15A4.91,4.91,0,0,1,69,24.65a2.39,2.39,0,0,1,.35,1,1.44,1.44,0,0,1-.37,1,1.51,1.51,0,0,1-1.2.42,1.19,1.19,0,0,1-.86-.41l-.89-.91a5.7,5.7,0,0,0-1.26-.92,4.15,4.15,0,0,0-2-.41,5.29,5.29,0,0,0-1.31.17,3.45,3.45,0,0,0-1.14.49,2.5,2.5,0,0,0-.81.84,2.39,2.39,0,0,0-.3,1.23,1.46,1.46,0,0,0,.32,1,2.79,2.79,0,0,0,.87.74,8.12,8.12,0,0,0,1.28.58c.49.17,1,.33,1.57.47a18.17,18.17,0,0,1,2.67.88,8.46,8.46,0,0,1,2,1.17,5,5,0,0,1,1.3,1.57,4.58,4.58,0,0,1,.46,2.08,5,5,0,0,1-.53,2.27,5.83,5.83,0,0,1-1.42,1.82,6.71,6.71,0,0,1-2.11,1.2,7.76,7.76,0,0,1-2.63.44,11.63,11.63,0,0,1-3.79-.51A7.71,7.71,0,0,1,57,39.61a4,4,0,0,1-1.11-1.3A2.73,2.73,0,0,1,55.63,37.43Z" transform="translate(-55.63 -4.5)"/><path class="cls-3" d="M72.06,39.67V23.52a1.27,1.27,0,0,1,.46-1,1.6,1.6,0,0,1,1.13-.42h5.79a6.08,6.08,0,0,1,2.4.46,5.87,5.87,0,0,1,1.9,1.25A5.47,5.47,0,0,1,85,25.67a5.75,5.75,0,0,1,.43,2.23A5.89,5.89,0,0,1,85,30.15,5.24,5.24,0,0,1,83.74,32a5.81,5.81,0,0,1-1.91,1.23,6.28,6.28,0,0,1-2.44.46H75.24v6a1.33,1.33,0,0,1-.48,1,1.67,1.67,0,0,1-1.15.43,1.57,1.57,0,0,1-1.11-.43A1.4,1.4,0,0,1,72.06,39.67Zm3.18-8.59H79.4a2.73,2.73,0,0,0,2.07-.85,3.29,3.29,0,0,0,.8-2.33,3.26,3.26,0,0,0-.81-2.33,2.72,2.72,0,0,0-2.06-.86H75.24Z" transform="translate(-55.63 -4.5)"/><path class="cls-3" d="M86.83,31.5a10.79,10.79,0,0,1,.71-4,9.23,9.23,0,0,1,2-3.1,8.69,8.69,0,0,1,3-2,10,10,0,0,1,3.82-.71,10.52,10.52,0,0,1,4,.72,8.43,8.43,0,0,1,3,2,8.65,8.65,0,0,1,1.89,3.1,11.24,11.24,0,0,1,.65,3.92,10.73,10.73,0,0,1-.72,4,9.06,9.06,0,0,1-2,3.09,9.21,9.21,0,0,1-3,2,10.05,10.05,0,0,1-3.81.71,9.87,9.87,0,0,1-3.86-.73,8.89,8.89,0,0,1-3-2,9.25,9.25,0,0,1-2-3.08A10.75,10.75,0,0,1,86.83,31.5Zm3.3,0a9.1,9.1,0,0,0,.46,3,6.41,6.41,0,0,0,1.29,2.21,5.58,5.58,0,0,0,2,1.4,6.39,6.39,0,0,0,2.54.49,6.13,6.13,0,0,0,2.45-.49,5.94,5.94,0,0,0,2-1.4,6.67,6.67,0,0,0,1.34-2.21,8.94,8.94,0,0,0,0-5.81,6.56,6.56,0,0,0-1.3-2.23,5.77,5.77,0,0,0-2-1.45,6.13,6.13,0,0,0-2.54-.52,6.23,6.23,0,0,0-2.54.52,5.58,5.58,0,0,0-2,1.45,6.7,6.7,0,0,0-1.29,2.23A8.6,8.6,0,0,0,90.13,31.5Z" transform="translate(-55.63 -4.5)"/><path class="cls-3" d="M108.35,39.69V23.52a1.32,1.32,0,0,1,.44-1,1.57,1.57,0,0,1,1.11-.42h6.29a6,6,0,0,1,2.29.43,5.66,5.66,0,0,1,1.82,1.18,5.3,5.3,0,0,1,1.2,1.76,5.38,5.38,0,0,1,.43,2.14,4.91,4.91,0,0,1-.34,1.85,5.37,5.37,0,0,1-.93,1.55,5.55,5.55,0,0,1-1.32,1.15,5.61,5.61,0,0,1-1.6.67L121.79,39a1.14,1.14,0,0,1,.21.43,1.56,1.56,0,0,1,.09.43,1.22,1.22,0,0,1-.48,1,1.55,1.55,0,0,1-.93.35h-.16a1.7,1.7,0,0,1-.91-.22,1.59,1.59,0,0,1-.56-.53l-4.4-7.23h-3.12v6.56a1.28,1.28,0,0,1-.48,1,1.66,1.66,0,0,1-1.15.42,1.57,1.57,0,0,1-1.11-.42A1.34,1.34,0,0,1,108.35,39.69Zm3.18-9.16H116a3,3,0,0,0,2-.75,2.7,2.7,0,0,0,.85-2.16,3.21,3.21,0,0,0-.68-2.1,2.32,2.32,0,0,0-1.89-.81h-4.77Z" transform="translate(-55.63 -4.5)"/><path class="cls-3" d="M122.74,23.47a1.26,1.26,0,0,1,.41-1,1.44,1.44,0,0,1,1-.39H135.4a1.52,1.52,0,0,1,1.08.39,1.29,1.29,0,0,1,.41,1,1.31,1.31,0,0,1-.41,1,1.49,1.49,0,0,1-1.08.39h-4V39.7a1.3,1.3,0,0,1-.44,1,1.68,1.68,0,0,1-2.22,0,1.29,1.29,0,0,1-.46-1V24.84h-4a1.45,1.45,0,0,1-1-.39A1.28,1.28,0,0,1,122.74,23.47Z" transform="translate(-55.63 -4.5)"/></svg>